<?xml version="1.0" encoding="UTF-8"?>
<svg id="Layer_1" data-name="Layer 1" xmlns="http://www.w3.org/2000/svg" viewBox="0 0 611.63 724.59">
  <path d="m93.56,44.5s181.34-88.14,346-16.34c154.49,67.47,244.71,279.61,96.78,483.12-51.36,70.55-138.17,117.46-138.17,117.46,0,0,96.89-184.34,33.16-337.24-49.92-119.94-141.89-177.38-195.19-203.47-57.83-28.25-142.58-43.54-142.58-43.54h0Z" style="fill: #0a0d30; stroke-width: 0px;"/>
  <path d="m0,139.13s53.3-23.85,107.73-34.72c54.36-10.99,111.64-8.77,111.64-8.77,0,0,121.17,46.43,183.2,166.51,60.67,117.5,31.53,221.59,14.09,280.74-13.75,46.67-44.98,91.72-27.54,98.17,17.37,6.65,27.54-7.96,27.54-7.96,0,0-23.21,26.51-53.68,49.38-30.43,22.86-60.56,42.11-60.56,42.11,0,0,92.51-170.53,42.4-319.97-43.77-130.68-143.6-191.5-191.43-217.53C88.47,151.59,0,139.13,0,139.13Z" style="fill: #0a0d30; stroke-width: 0px;"/>
</svg>